<?xml version="1.0" encoding="utf-8"?>
<!-- Generator: Adobe Illustrator 16.0.0, SVG Export Plug-In . SVG Version: 6.00 Build 0)  -->
<!DOCTYPE svg PUBLIC "-//W3C//DTD SVG 1.1//EN" "http://www.w3.org/Graphics/SVG/1.1/DTD/svg11.dtd">
<svg version="1.1" id="Layer_1" xmlns="http://www.w3.org/2000/svg" xmlns:xlink="http://www.w3.org/1999/xlink" x="0px" y="0px"
	 width="146.834px" height="26px" viewBox="0 0 146.834 26" enable-background="new 0 0 146.834 26" xml:space="preserve">
<g>
	<g>
		<g>
			<defs>
				<path id="SVGID_1_" d="M1.213,17.078c-0.197,0.723,0.052,1.086,0.275,1.516c0.732,1.405,3.034,5.622,3.034,5.622
					C4.81,24.721,5.207,25,5.862,25c1.291,0,3.365-1.335,3.365-1.335l7.739-4.815H7.169l-4.233,0.002
					c-1.606,0-1.961-1.021-1.696-1.854L1.213,17.078z"/>
			</defs>
			<clipPath id="SVGID_2_">
				<use xlink:href="#SVGID_1_"  overflow="visible"/>
			</clipPath>
			
				<linearGradient id="SVGID_3_" gradientUnits="userSpaceOnUse" x1="-960.2329" y1="805.8418" x2="-960.0663" y2="805.8418" gradientTransform="matrix(77.8166 -29.3219 -29.3219 -77.8166 98354.5156 34575.0938)">
				<stop  offset="0" style="stop-color:#007272"/>
				<stop  offset="0.0046" style="stop-color:#017373"/>
				<stop  offset="0.1035" style="stop-color:#128D88"/>
				<stop  offset="0.212" style="stop-color:#20A298"/>
				<stop  offset="0.3351" style="stop-color:#2AB0A3"/>
				<stop  offset="0.4839" style="stop-color:#2FB8AA"/>
				<stop  offset="0.7289" style="stop-color:#31BBAC"/>
				<stop  offset="1" style="stop-color:#31BBAC"/>
			</linearGradient>
			<polygon clip-path="url(#SVGID_2_)" fill="url(#SVGID_3_)" points="-1.667,17.991 14.978,11.72 19.607,24.005 2.963,30.275 			
				"/>
		</g>
	</g>
</g>
<g>
	<g>
		<g>
			<defs>
				<path id="SVGID_4_" d="M8.72,1.059c-0.848,0-1.04,0.539-1.082,0.639L1.286,16.869c-0.346,0.854-0.039,1.982,1.65,1.982
					l4.233-0.002l4.915-11.627c-1.311-3.104-2.266-5.368-2.272-5.384C9.75,1.686,9.474,1.059,8.735,1.059H8.72z"/>
			</defs>
			<clipPath id="SVGID_5_">
				<use xlink:href="#SVGID_4_"  overflow="visible"/>
			</clipPath>
			
				<linearGradient id="SVGID_6_" gradientUnits="userSpaceOnUse" x1="-971.9038" y1="806.1602" x2="-971.7373" y2="806.1602" gradientTransform="matrix(45.9802 -104.1073 -104.1073 -45.9802 128618.0156 -64095.7344)">
				<stop  offset="0" style="stop-color:#86BB40"/>
				<stop  offset="0.1717" style="stop-color:#82B840"/>
				<stop  offset="0.3449" style="stop-color:#76B03E"/>
				<stop  offset="0.5189" style="stop-color:#62A23C"/>
				<stop  offset="0.6934" style="stop-color:#458E38"/>
				<stop  offset="0.8667" style="stop-color:#217534"/>
				<stop  offset="1" style="stop-color:#005E30"/>
			</linearGradient>
			<polygon clip-path="url(#SVGID_5_)" fill="url(#SVGID_6_)" points="-5.635,15.947 2.759,-3.06 18.66,3.963 10.266,22.971 			"/>
		</g>
	</g>
</g>
<g>
	<g>
		<g>
			<defs>
				<path id="SVGID_7_" d="M7.697,1.57c0-0.001,0.001-0.001,0.001-0.002C7.697,1.569,7.697,1.57,7.697,1.57 M8.72,1
					C8.022,1,7.753,1.454,7.698,1.568C7.715,1.533,7.962,1.059,8.72,1.059h0.015c0.739,0,1.015,0.627,1.077,0.779
					c0.007,0.017,0.961,2.28,2.272,5.384C14.973,14.064,19.588,25,19.588,25h6.766c0,0-9.797-23.204-9.858-23.347
					C16.437,1.512,16.178,1.016,15.462,1c0.008,0-0.03,0-0.03,0H8.72z"/>
			</defs>
			<clipPath id="SVGID_8_">
				<use xlink:href="#SVGID_7_"  overflow="visible"/>
			</clipPath>
			
				<linearGradient id="SVGID_9_" gradientUnits="userSpaceOnUse" x1="-963.8789" y1="823.0488" x2="-963.7121" y2="823.0488" gradientTransform="matrix(59.0103 144.3087 144.3087 -59.0103 -61882.3359 187665.5156)">
				<stop  offset="0" style="stop-color:#00AAE5"/>
				<stop  offset="0.4274" style="stop-color:#0D80C5"/>
				<stop  offset="0.7921" style="stop-color:#1763AF"/>
				<stop  offset="1" style="stop-color:#1A58A7"/>
			</linearGradient>
			<polygon clip-path="url(#SVGID_8_)" fill="url(#SVGID_9_)" points="23.681,-5.536 34.762,21.563 10.37,31.536 -0.711,4.438 			
				"/>
		</g>
	</g>
</g>
<path fill="#FFFFFF" d="M45.452,18.85h-2.58l-1.41-3.352h-6.569l-1.431,3.352h-2.498l6.113-13.992h2.261L45.452,18.85z
	 M38.168,7.775l-2.381,5.559h4.783L38.168,7.775z"/>
<polygon fill="#FFFFFF" points="67.976,18.85 65.515,18.85 65.515,7.219 61.108,7.219 61.108,4.957 72.58,4.957 71.633,7.219 
	67.976,7.219 "/>
<polygon fill="#FFFFFF" points="114.713,7.219 107.273,7.219 107.273,10.754 112.038,10.754 112.038,12.938 107.273,12.938 
	107.273,16.63 114.716,16.63 114.716,18.85 104.813,18.85 104.813,4.957 114.713,4.957 "/>
<rect x="129.829" y="4.957" fill="#FFFFFF" width="2.328" height="13.893"/>
<path fill="#FFFFFF" d="M122.259,6.961c-1.42,0-2.625,0.429-2.632,1.372c-0.007,1.103,0.686,1.485,3.298,2.335
	c2.888,0.951,4.423,1.916,4.406,4.266c-0.017,2.646-2.062,4.156-5.052,4.156c-2.114,0-4.01-0.686-5.457-1.958l0.9-2.179
	c1.312,1.1,2.901,1.879,4.62,1.887c1.503,0.008,2.572-0.725,2.572-1.809c0-0.905-0.522-1.508-3.06-2.313
	c-2.905-0.953-4.662-1.948-4.647-4.315c0.019-2.354,2.228-3.694,5.004-3.68c2.776,0.013,4.343,1.028,4.578,1.166l-0.872,1.981
	C125.354,7.566,124.107,6.961,122.259,6.961"/>
<polygon fill="#FFFFFF" points="135.158,11.683 141.378,4.957 138.398,4.957 132.157,11.683 139.016,18.852 142.034,18.852 "/>
<path fill="#FFFFFF" d="M80.104,4.719c-3.968,0-7.185,3.218-7.185,7.187c0,3.97,3.217,7.187,7.185,7.187s7.187-3.217,7.187-7.187
	C87.291,7.937,84.072,4.719,80.104,4.719 M80.104,16.848c-2.73,0-4.723-2.213-4.723-4.942s1.993-4.942,4.723-4.942
	s4.725,2.213,4.725,4.942S82.834,16.848,80.104,16.848"/>
<path fill="#FFFFFF" d="M95.132,4.957h-5.27V18.85h5.27c3.967,0,7.184-2.996,7.184-6.964C102.315,7.916,99.099,4.957,95.132,4.957
	 M95.132,16.627l-2.807,0.003V7.222h2.817c2.729,0,4.712,1.934,4.712,4.664C99.854,14.614,97.86,16.627,95.132,16.627"/>
<path fill="#FFFFFF" d="M58.424,12.694c0,4.142-2.431,6.375-5.956,6.375c-3.523,0-5.954-2.231-5.954-6.375V4.957h2.461v8.031
	c0,2.429,1.426,3.856,3.494,3.856c2.067,0,3.494-1.427,3.494-3.856V4.957h2.46L58.424,12.694L58.424,12.694z"/>
<path fill="#FFFFFF" d="M145.043,17.921c0-0.512-0.416-0.928-0.928-0.928c-0.51,0-0.926,0.416-0.926,0.928
	c0,0.511,0.416,0.927,0.926,0.927C144.627,18.848,145.043,18.432,145.043,17.921 M144.904,17.921c0,0.464-0.336,0.798-0.789,0.798
	c-0.45,0-0.788-0.334-0.788-0.798c0-0.463,0.338-0.798,0.788-0.798C144.568,17.123,144.904,17.458,144.904,17.921"/>
<path fill="#FFFFFF" d="M144.518,18.395l-0.226-0.314c-0.039-0.057-0.067-0.096-0.11-0.126c0.159-0.021,0.256-0.106,0.256-0.247
	c0-0.145-0.101-0.271-0.295-0.271h-0.313v0.961h0.14v-0.432c0.073,0,0.104,0.021,0.151,0.094l0.229,0.338h0.168V18.395z
	 M144.286,17.705c0,0.137-0.113,0.15-0.224,0.15h-0.098v-0.305h0.145C144.238,17.553,144.286,17.615,144.286,17.705"/>
</svg>
